<svg width="26" height="26" xmlns="http://www.w3.org/2000/svg" xmlns:xlink="http://www.w3.org/1999/xlink" xml:space="preserve" overflow="hidden"><g transform="translate(-444 -208)"><path d="M466.367 211.635C464.82 210.091 462.33 210.041 460.723 211.522L447.513 224.72C445.99 226.378 446.1 228.957 447.759 230.48 449.319 231.913 451.718 231.911 453.277 230.476L466.487 217.278C467.966 215.669 467.913 213.18 466.367 211.635ZM454.445 221.246C454.232 221.459 453.888 221.459 453.676 221.247 453.464 221.034 453.464 220.69 453.676 220.478 453.888 220.266 454.232 220.266 454.445 220.478 454.445 220.478 454.445 220.478 454.445 220.478 454.657 220.69 454.657 221.034 454.445 221.246 454.445 221.246 454.445 221.246 454.445 221.246ZM455.982 222.784C455.77 222.996 455.426 222.996 455.213 222.784 455.001 222.572 455.001 222.228 455.213 222.015 455.425 221.803 455.77 221.803 455.982 222.015 455.982 222.015 455.982 222.015 455.982 222.015 456.194 222.227 456.194 222.571 455.982 222.784 455.982 222.784 455.982 222.784 455.982 222.784ZM455.982 219.709C455.77 219.922 455.426 219.922 455.213 219.709 455.001 219.497 455.001 219.153 455.213 218.941 455.425 218.728 455.77 218.728 455.982 218.941 455.982 218.941 455.982 218.941 455.982 218.941 456.194 219.153 456.194 219.497 455.982 219.709 455.982 219.709 455.982 219.709 455.982 219.709ZM457.519 224.321C457.307 224.534 456.963 224.534 456.75 224.321 456.538 224.109 456.538 223.765 456.75 223.553 456.963 223.34 457.307 223.34 457.519 223.553 457.519 223.553 457.519 223.553 457.519 223.553 457.731 223.765 457.732 224.109 457.519 224.321 457.519 224.321 457.519 224.321 457.519 224.321ZM457.519 221.246C457.307 221.459 456.963 221.459 456.75 221.247 456.538 221.034 456.538 220.69 456.75 220.478 456.963 220.266 457.307 220.266 457.519 220.478 457.519 220.478 457.519 220.478 457.519 220.478 457.731 220.69 457.732 221.034 457.519 221.246 457.519 221.246 457.519 221.246 457.519 221.246ZM457.519 218.172C457.307 218.384 456.963 218.384 456.75 218.172 456.538 217.96 456.538 217.616 456.75 217.403 456.963 217.191 457.307 217.191 457.519 217.403 457.519 217.403 457.519 217.403 457.519 217.403 457.731 217.615 457.732 217.959 457.519 218.172 457.519 218.172 457.519 218.172 457.519 218.172ZM459.057 222.784C458.844 222.996 458.5 222.996 458.288 222.784 458.076 222.572 458.076 222.228 458.288 222.015 458.5 221.803 458.844 221.803 459.057 222.015 459.057 222.015 459.057 222.015 459.057 222.015 459.269 222.227 459.269 222.571 459.057 222.784 459.057 222.784 459.057 222.784 459.057 222.784ZM459.057 219.709C458.844 219.922 458.5 219.922 458.288 219.709 458.076 219.497 458.076 219.153 458.288 218.941 458.5 218.728 458.844 218.728 459.057 218.941 459.057 218.941 459.057 218.941 459.057 218.941 459.269 219.153 459.269 219.497 459.057 219.709 459.057 219.709 459.057 219.709 459.057 219.709ZM460.594 221.246C460.382 221.459 460.038 221.459 459.825 221.247 459.613 221.034 459.613 220.69 459.825 220.478 460.037 220.266 460.382 220.266 460.594 220.478 460.594 220.478 460.594 220.478 460.594 220.478 460.806 220.69 460.806 221.034 460.594 221.246 460.594 221.246 460.594 221.246 460.594 221.246Z" stroke="#000000" stroke-width="0.270833" fill="#FF0000"/></g></svg>