<svg width="57" height="57" xmlns="http://www.w3.org/2000/svg" xmlns:xlink="http://www.w3.org/1999/xlink" xml:space="preserve" overflow="hidden"><g transform="translate(-560 -208)"><path d="M609.034 215.97C605.643 212.584 600.186 212.475 596.662 215.722L567.701 244.655C564.363 248.29 564.604 253.944 568.24 257.282 571.662 260.424 576.92 260.42 580.338 257.274L609.299 228.341C612.542 224.813 612.425 219.356 609.034 215.97ZM582.898 237.04C582.433 237.506 581.678 237.506 581.213 237.04 580.747 236.575 580.747 235.821 581.212 235.355 581.678 234.89 582.432 234.89 582.898 235.355 582.898 235.355 582.898 235.355 582.898 235.355 583.363 235.82 583.364 236.574 582.899 237.04 582.898 237.04 582.898 237.04 582.898 237.04ZM586.268 240.411C585.803 240.876 585.048 240.877 584.583 240.411 584.117 239.946 584.117 239.191 584.583 238.726 585.048 238.261 585.802 238.26 586.268 238.726 586.268 238.726 586.268 238.726 586.268 238.726 586.733 239.191 586.734 239.945 586.269 240.41 586.268 240.411 586.268 240.411 586.268 240.411ZM586.268 233.67C585.803 234.136 585.048 234.136 584.583 233.67 584.117 233.205 584.117 232.451 584.583 231.985 585.048 231.52 585.802 231.52 586.268 231.985 586.268 231.985 586.268 231.985 586.268 231.985 586.733 232.45 586.734 233.204 586.269 233.67 586.268 233.67 586.268 233.67 586.268 233.67ZM589.638 243.781C589.173 244.247 588.418 244.247 587.953 243.781 587.488 243.316 587.487 242.562 587.953 242.096 588.418 241.631 589.173 241.631 589.638 242.096 589.638 242.096 589.638 242.096 589.638 242.096 590.104 242.561 590.104 243.315 589.639 243.781 589.639 243.781 589.638 243.781 589.638 243.781ZM589.638 237.04C589.173 237.506 588.418 237.506 587.953 237.04 587.488 236.575 587.487 235.821 587.953 235.355 588.418 234.89 589.173 234.89 589.638 235.355 589.638 235.355 589.638 235.355 589.638 235.355 590.104 235.82 590.104 236.574 589.639 237.04 589.639 237.04 589.638 237.04 589.638 237.04ZM589.638 230.3C589.173 230.766 588.418 230.766 587.953 230.3 587.488 229.835 587.487 229.08 587.953 228.615 588.418 228.15 589.173 228.15 589.638 228.615 589.638 228.615 589.638 228.615 589.638 228.615 590.104 229.08 590.104 229.834 589.639 230.299 589.639 230.3 589.638 230.3 589.638 230.3ZM593.009 240.411C592.544 240.876 591.789 240.877 591.324 240.411 590.858 239.946 590.858 239.191 591.323 238.726 591.789 238.261 592.543 238.26 593.009 238.726 593.009 238.726 593.009 238.726 593.009 238.726 593.474 239.191 593.475 239.945 593.01 240.41 593.009 240.411 593.009 240.411 593.009 240.411ZM593.009 233.67C592.544 234.136 591.789 234.136 591.324 233.67 590.858 233.205 590.858 232.451 591.323 231.985 591.789 231.52 592.543 231.52 593.009 231.985 593.009 231.985 593.009 231.985 593.009 231.985 593.474 232.45 593.475 233.204 593.01 233.67 593.009 233.67 593.009 233.67 593.009 233.67ZM596.379 237.04C595.914 237.506 595.159 237.506 594.694 237.04 594.228 236.575 594.228 235.821 594.694 235.355 595.159 234.89 595.913 234.89 596.379 235.355 596.379 235.355 596.379 235.355 596.379 235.355 596.844 235.82 596.845 236.574 596.38 237.04 596.379 237.04 596.379 237.04 596.379 237.04Z" stroke="#000000" stroke-width="0.59375" fill="#1900FF"/></g></svg>