<svg width="27" height="26" xmlns="http://www.w3.org/2000/svg" xmlns:xlink="http://www.w3.org/1999/xlink" xml:space="preserve" overflow="hidden"><g transform="translate(-462 -81)"><path d="M17.3333 18.4167 17.3333 16.25 8.125 16.25C7.82708 16.25 7.58333 16.0063 7.58333 15.7083L7.58333 10.2917C7.58333 9.99375 7.82708 9.75 8.125 9.75L17.3333 9.75 17.3333 7.58333C17.3333 6.9875 16.8458 6.5 16.25 6.5L15.3021 6.5C15.2208 6.5 15.1667 6.44583 15.1667 6.36458L15.1667 5.55208C15.1667 5.47083 15.2208 5.41667 15.3021 5.41667L15.9792 5.41667C16.1417 5.41667 16.25 5.30833 16.25 5.14583L16.25 3.25C16.25 2.65417 15.7625 2.16667 15.1667 2.16667L7.58333 2.16667C6.9875 2.16667 6.5 2.65417 6.5 3.25L6.5 5.14583C6.5 5.30833 6.60833 5.41667 6.77083 5.41667L7.44792 5.41667C7.52917 5.41667 7.58333 5.47083 7.58333 5.55208L7.58333 6.36458C7.58333 6.44583 7.52917 6.5 7.44792 6.5L6.5 6.5C5.90417 6.5 5.41667 6.9875 5.41667 7.58333L5.41667 20.5833C5.41667 21.1792 5.90417 21.6667 6.5 21.6667L10.2917 21.6667C10.2917 19.8792 11.7542 18.4167 13.5417 18.4167L17.3333 18.4167Z" stroke="#000000" stroke-width="0.270833" fill="#FF0000" transform="matrix(1.03846 0 0 1 462 81)"/><path d="M8.66667 11.1042 8.66667 14.8958C8.66667 15.0583 8.775 15.1667 8.9375 15.1667L17.3333 15.1667 17.3333 10.8333 8.9375 10.8333C8.775 10.8333 8.66667 10.9417 8.66667 11.1042Z" stroke="#000000" stroke-width="0.270833" fill="#FF0000" transform="matrix(1.03846 0 0 1 462 81)"/><path d="M15.9792 22.75 13.5417 22.75C12.9458 22.75 12.4583 22.2625 12.4583 21.6667 12.4583 21.0708 12.9458 20.5833 13.5417 20.5833L15.9792 20.5833 15.9792 22.75ZM18.4167 19.5 13.5417 19.5C12.35 19.5 11.375 20.475 11.375 21.6667 11.375 22.8583 12.35 23.8333 13.5417 23.8333L18.4167 23.8333C19.6083 23.8333 20.5833 22.8583 20.5833 21.6667 20.5833 20.475 19.6083 19.5 18.4167 19.5Z" stroke="#000000" stroke-width="0.270833" fill="#FF0000" transform="matrix(1.03846 0 0 1 462 81)"/></g></svg>