<svg width="56" height="56" xmlns="http://www.w3.org/2000/svg" xmlns:xlink="http://www.w3.org/1999/xlink" xml:space="preserve" overflow="hidden"><g transform="translate(-569 -81)"><path d="M606.333 120.667 606.333 116 586.5 116C585.858 116 585.333 115.475 585.333 114.833L585.333 103.167C585.333 102.525 585.858 102 586.5 102L606.333 102 606.333 97.3333C606.333 96.05 605.283 95 604 95L601.958 95C601.783 95 601.667 94.8833 601.667 94.7083L601.667 92.9583C601.667 92.7833 601.783 92.6667 601.958 92.6667L603.417 92.6667C603.767 92.6667 604 92.4333 604 92.0833L604 88C604 86.7167 602.95 85.6667 601.667 85.6667L585.333 85.6667C584.05 85.6667 583 86.7167 583 88L583 92.0833C583 92.4333 583.233 92.6667 583.583 92.6667L585.042 92.6667C585.217 92.6667 585.333 92.7833 585.333 92.9583L585.333 94.7083C585.333 94.8833 585.217 95 585.042 95L583 95C581.717 95 580.667 96.05 580.667 97.3333L580.667 125.333C580.667 126.617 581.717 127.667 583 127.667L591.167 127.667C591.167 123.817 594.317 120.667 598.167 120.667L606.333 120.667Z" stroke="#000000" stroke-width="0.583333" fill="#1900FF"/><path d="M587.667 104.917 587.667 113.083C587.667 113.433 587.9 113.667 588.25 113.667L606.333 113.667 606.333 104.333 588.25 104.333C587.9 104.333 587.667 104.567 587.667 104.917Z" stroke="#000000" stroke-width="0.583333" fill="#1900FF"/><path d="M603.417 130 598.167 130C596.883 130 595.833 128.95 595.833 127.667 595.833 126.383 596.883 125.333 598.167 125.333L603.417 125.333 603.417 130ZM608.667 123 598.167 123C595.6 123 593.5 125.1 593.5 127.667 593.5 130.233 595.6 132.333 598.167 132.333L608.667 132.333C611.233 132.333 613.333 130.233 613.333 127.667 613.333 125.1 611.233 123 608.667 123Z" stroke="#000000" stroke-width="0.583333" fill="#1900FF"/></g></svg>