<svg width="87" height="87" xmlns="http://www.w3.org/2000/svg" xmlns:xlink="http://www.w3.org/1999/xlink" xml:space="preserve" overflow="hidden"><g transform="translate(-139 -360)"><path d="M210.164 423.438 184.625 381.297 191.183 370.475C191.718 369.63 191.467 368.51 190.622 367.974 189.776 367.439 188.656 367.69 188.121 368.535 188.108 368.556 188.095 368.576 188.083 368.597L184.318 374.809 184.318 366.344C184.318 365.343 183.506 364.531 182.505 364.531 181.504 364.531 180.693 365.343 180.693 366.344L180.693 374.809 176.927 368.597C176.426 367.731 175.317 367.435 174.451 367.937 173.584 368.439 173.289 369.548 173.791 370.414 173.803 370.435 173.815 370.455 173.828 370.475L180.386 381.297 154.846 423.438 146.255 423.438 146.255 428.875 218.755 428.875 218.755 423.438ZM175.455 422.984C175.613 412.767 178.34 406.219 182.505 406.219 186.671 406.219 189.403 412.767 189.554 422.984Z" stroke="#000000" stroke-width="0.90625" fill="#1900FF"/></g></svg>