<svg width="41" height="41" xmlns="http://www.w3.org/2000/svg" xmlns:xlink="http://www.w3.org/1999/xlink" xml:space="preserve" overflow="hidden"><g transform="translate(-262 -360)"><path d="M295.537 389.896 283.502 370.036 286.592 364.937C286.844 364.538 286.726 364.01 286.327 363.758 285.929 363.506 285.401 363.624 285.149 364.022 285.143 364.032 285.137 364.042 285.131 364.051L283.357 366.979 283.357 362.99C283.357 362.518 282.974 362.135 282.503 362.135 282.031 362.135 281.648 362.518 281.648 362.99L281.648 366.979 279.874 364.051C279.637 363.643 279.115 363.504 278.707 363.74 278.298 363.977 278.159 364.5 278.396 364.908 278.401 364.917 278.407 364.927 278.413 364.937L281.504 370.036 269.468 389.896 265.419 389.896 265.419 392.458 299.586 392.458 299.586 389.896ZM279.18 389.682C279.254 384.867 280.54 381.781 282.503 381.781 284.465 381.781 285.753 384.867 285.824 389.682Z" stroke="#000000" stroke-width="0.427083" fill="#FF0000"/></g></svg>